Video: Rocky Planetesimal - Go right
Music: Michael Nyman - A Wild And Distant Shore

Duration: 00:02:41.20, start: 0.000000, bitrate: 5857 kb/s
Stream #0.0(und): Video: h264, yuv420p, 1920x1080, 23.98 tb(r)
Stream #0.1(und): Audio: aac, 44100 Hz, stereo, s16